# xmcd
#
# Track frame offsets:
#	150
#	10734
#	21207
#	32705
#	40416
#	52200
#	61286
#	69709
#	80169
#	90430
#	99415
#	108776
#
# Disc length: 1577 seconds
#
# Revision: 0
# Processed by: cddbd v1.5.2PL0 Copyright (c) Steve Scherf et al.
# Submitted via: EasyCDDAExtractor 2011.0.0.0
#
DISCID=9806270c
DTITLE=Ricky Nelson - Hello Mary Lou
DYEAR=2000
DGENRE=Country
TTITLE0=Travellin' Man
TTITLE1=Hello Mary Lou
TTITLE2=Poor Little Fool
TTITLE3=Stood Up
TTITLE4=You Are The Only One
TTITLE5=It's Late
TTITLE6=You Know What I Mean
TTITLE7=Young World
TTITLE8=Lonesome Town
TTITLE9=I Got A Feeling
TTITLE10=Just A Little Too Much
TTITLE11=Believe What You Say
EXTD=
EXTT0=
EXTT1=
EXTT2=
EXTT3=
EXTT4=
EXTT5=
EXTT6=
EXTT7=
EXTT8=
EXTT9=
EXTT10=
EXTT11=
PLAYORDER=
